HIERARCHY
ROOT Hips
{
	OFFSET 0.000000 0.000000 0.000000
	CHANNELS 6 Xposition Yposition Zposition Xrotation Yrotation Zrotation
	JOINT LeftUpLeg_virtual
	{
		OFFSET 0.000000 0.000000 0.000000
		CHANNELS 3 Xrotation Yrotation Zrotation
		JOINT LeftUpLeg
		{
			OFFSET 15.427100 -6.655098 0.678600
			CHANNELS 3 Xrotation Yrotation Zrotation
			JOINT LeftLeg
			{
				OFFSET 4.081073 -39.591068 13.024000
				CHANNELS 3 Xrotation Yrotation Zrotation
				JOINT LeftFoot
				{
					OFFSET -4.081074 -37.707932 -15.979700
					CHANNELS 3 Xrotation Yrotation Zrotation
					JOINT LeftToeBase
					{
						OFFSET 5.346399 -15.068900 20.645000
						CHANNELS 3 Xrotation Yrotation Zrotation
						JOINT LeftToe_End
						{
							OFFSET 2.754700 0.931300 11.300900
							CHANNELS 3 Xrotation Yrotation Zrotation
							End Site
							{
								OFFSET 0 0 0
							}
						}
					}
				}
			}
		}
	}
	JOINT RightUpLeg_virtual
	{
		OFFSET 0.000000 0.000000 0.000000
		CHANNELS 3 Xrotation Yrotation Zrotation
		JOINT RightUpLeg
		{
			OFFSET -15.569500 -6.655098 0.678600
			CHANNELS 3 Xrotation Yrotation Zrotation
			JOINT RightLeg
			{
				OFFSET -4.081825 -39.591045 13.023800
				CHANNELS 3 Xrotation Yrotation Zrotation
				JOINT RightFoot
				{
					OFFSET 4.081824 -37.707954 -15.979600
					CHANNELS 3 Xrotation Yrotation Zrotation
					JOINT RightToeBase
					{
						OFFSET -5.346400 -15.068900 20.645000
						CHANNELS 3 Xrotation Yrotation Zrotation
						JOINT RightToe_End
						{
							OFFSET -2.754700 0.931300 11.300900
							CHANNELS 3 Xrotation Yrotation Zrotation
							End Site
							{
								OFFSET 0 0 0
							}
						}
					}
				}
			}
		}
	}
	JOINT Spine_virtual
	{
		OFFSET 0.000000 0.000000 0.000000
		CHANNELS 3 Xrotation Yrotation Zrotation
		JOINT Spine
		{
			OFFSET -0.279200 12.230698 -2.892100
			CHANNELS 3 Xrotation Yrotation Zrotation
			JOINT Spine1
			{
				OFFSET -0.232667 10.192268 -1.242267
				CHANNELS 3 Xrotation Yrotation Zrotation
				JOINT Spine1_split
				{
					OFFSET -0.232667 10.192268 -1.242267
					CHANNELS 3 Xrotation Yrotation Zrotation
					JOINT Spine2
					{
						OFFSET -0.232667 10.192268 -1.242267
						CHANNELS 3 Xrotation Yrotation Zrotation
						JOINT Neck_virtual
						{
							OFFSET 0.000000 0.000000 0.000000
							CHANNELS 3 Xrotation Yrotation Zrotation
							JOINT Neck
							{
								OFFSET -0.418800 17.814194 8.416900
								CHANNELS 3 Xrotation Yrotation Zrotation
								JOINT Head
								{
									OFFSET 0.000000 7.031097 3.806800
									CHANNELS 3 Xrotation Yrotation Zrotation
									JOINT HeadTop_End
									{
										OFFSET 0.000000 24.646606 12.978600
										CHANNELS 3 Xrotation Yrotation Zrotation
										End Site
										{
											OFFSET 0 0 0
										}
									}
								}
							}
						}
						JOINT LeftShoulder_virtual
						{
							OFFSET 0.000000 0.000000 0.000000
							CHANNELS 3 Xrotation Yrotation Zrotation
							JOINT LeftShoulder
							{
								OFFSET 8.476499 7.247704 -3.868750
								CHANNELS 3 Xrotation Yrotation Zrotation
								JOINT LeftShoulder_split
								{
									OFFSET 8.476499 7.247704 -3.868750
									CHANNELS 3 Xrotation Yrotation Zrotation
									JOINT LeftArm
									{
										OFFSET 9.308998 -2.777710 0.208600
										CHANNELS 3 Xrotation Yrotation Zrotation
										JOINT LeftForeArm
										{
											OFFSET 29.972298 0.000000 0.000000
											CHANNELS 3 Xrotation Yrotation Zrotation
											JOINT LeftHand
											{
												OFFSET 26.026505 0.000000 0.000000
												CHANNELS 3 Xrotation Yrotation Zrotation
												End Site
												{
													OFFSET 0 0 0
												}
											}
										}
									}
								}
							}
						}
						JOINT RightShoulder_virtual
						{
							OFFSET 0.000000 0.000000 0.000000
							CHANNELS 3 Xrotation Yrotation Zrotation
							JOINT RightShoulder
							{
								OFFSET -7.570500 7.247704 -3.868750
								CHANNELS 3 Xrotation Yrotation Zrotation
								JOINT RightShoulder_split
								{
									OFFSET -7.570500 7.247704 -3.868750
									CHANNELS 3 Xrotation Yrotation Zrotation
									JOINT RightArm
									{
										OFFSET -9.308998 -2.777710 0.208500
										CHANNELS 3 Xrotation Yrotation Zrotation
										JOINT RightForeArm
										{
											OFFSET -29.972300 0.000000 0.000000
											CHANNELS 3 Xrotation Yrotation Zrotation
											JOINT RightHand
											{
												OFFSET -26.026505 0.000000 0.000000
												CHANNELS 3 Xrotation Yrotation Zrotation
												End Site
												{
													OFFSET 0 0 0
												}
											}
										}
									}
								}
							}
						}
					}
				}
			}
		}
	}
}
MOTION
Frames: 4
Frame Time: 0.03333333
-6.426607 104.715744 180.696182 0.000000 0.000000 0.000000 23.706407 7.914474 -1.771763 -17.457912 11.555983 15.311529 49.814847 11.597543 0.219141 14.245416 0.123660 0.255886 -0.029124 -0.041882 0.065443 0.000000 0.000000 0.000000 23.706407 7.914474 -1.771763 -58.801864 -29.251173 -10.310965 38.303899 2.779549 -13.750242 34.812040 3.142283 4.884772 -1.020795 -1.040478 0.443696 0.000000 0.000000 0.000000 23.706407 7.914474 -1.771763 -2.451941 -0.793107 1.361578 -4.931172 -0.810807 0.177927 0.000000 0.000000 0.000000 0.000000 0.000000 0.000000 -4.931175 -0.810805 0.177927 -7.350265 3.966310 -6.500796 -32.165608 -0.130244 4.295690 0.000000 0.000000 0.000000 -4.931175 -0.810805 0.177927 8.830584 1.444240 29.983496 0.000000 0.000000 0.000000 -50.163051 -13.200024 7.800934 -38.210739 -44.905311 -5.993782 0.000000 0.000000 0.000000 -4.931175 -0.810805 0.177927 -7.160046 -23.242396 -38.306665 0.000000 0.000000 0.000000 -93.984947 23.703133 43.728681 -27.175883 55.510600 -4.699114 0.000000 0.000000 0.000000 
-6.908565 99.740967 190.123550 0.000000 0.000000 0.000000 19.874589 9.264954 -1.631841 -13.201630 8.998523 15.940410 47.010529 14.750579 -2.391603 12.410157 -0.101513 -0.277988 -0.014930 -0.021881 0.065440 0.000000 0.000000 0.000000 19.874589 9.264954 -1.631841 -62.059727 -27.455272 -11.147936 40.922187 0.357185 -13.809528 33.199343 2.930343 0.924750 -4.299789 2.840518 -1.252935 0.000000 0.000000 0.000000 19.874589 9.264954 -1.631841 -2.287085 -1.061564 0.771377 -4.594416 -1.061328 0.101277 0.000000 0.000000 0.000000 0.000000 0.000000 0.000000 -4.594413 -1.061324 0.101277 -4.837208 3.021062 -5.623374 -32.648277 -0.269691 4.329762 0.000000 0.000000 0.000000 -4.594413 -1.061324 0.101277 10.044632 0.256263 32.051223 0.000000 0.000000 0.000000 -48.561720 -10.210830 11.799410 -38.609881 -41.548509 -5.423210 0.000000 0.000000 0.000000 -4.594413 -1.061324 0.101277 -8.323179 -24.135442 -40.312685 0.000000 0.000000 0.000000 -89.460363 26.675446 38.968268 -28.899572 50.290867 -7.128693 0.000000 0.000000 0.000000 
-7.141593 95.298050 199.098602 0.000000 0.000000 0.000000 15.563711 10.636306 -1.588642 -11.434001 4.782095 15.666424 46.413471 17.107382 -5.052594 9.658401 -0.508452 -2.361215 -2.225742 0.181330 -4.862837 0.000000 0.000000 0.000000 15.563711 10.636306 -1.588642 -63.859824 -26.480304 -11.436546 44.984517 -0.403082 -14.740264 31.053175 1.162723 -1.271165 -4.296410 2.698312 1.534591 0.000000 0.000000 0.000000 15.563711 10.636306 -1.588642 -1.875278 -1.316585 0.401657 -3.758565 -1.458370 0.264352 0.000000 0.000000 0.000000 0.000000 0.000000 0.000000 -3.758558 -1.458363 0.264352 -2.312996 3.118228 -4.492906 -31.180042 -0.574889 3.975778 0.000000 0.000000 0.000000 -3.758558 -1.458363 0.264352 9.718429 1.273661 32.721927 0.000000 0.000000 0.000000 -47.199834 -10.995457 14.448394 -37.509333 -36.402972 -3.708630 0.000000 0.000000 0.000000 -3.758558 -1.458363 0.264352 -8.350549 -23.530582 -42.083193 0.000000 0.000000 0.000000 -83.150095 28.065874 30.864597 -31.664351 45.607451 -6.457771 0.000000 0.000000 0.000000 
-7.163069 93.727180 207.311020 0.000000 0.000000 0.000000 11.432345 11.885145 -1.913475 -14.392511 4.203911 13.752153 44.351478 15.613025 -3.816820 7.629486 -0.881552 -3.869917 -8.933237 3.609261 -22.103494 0.000000 0.000000 0.000000 11.432345 11.885145 -1.913475 -61.494850 -26.589206 -11.839464 44.484838 -0.841680 -13.734214 29.793302 0.463193 -4.362628 -1.858029 0.086346 4.785943 0.000000 0.000000 0.000000 11.432345 11.885145 -1.913475 -1.333484 -1.490272 0.412889 -2.665331 -2.036632 0.637363 0.000000 0.000000 0.000000 0.000000 0.000000 0.000000 -2.665334 -2.036631 0.637364 -0.982933 2.569753 -4.265420 -28.250607 -0.913076 4.381819 0.000000 0.000000 0.000000 -2.665334 -2.036631 0.637364 11.255583 -1.044329 34.818675 0.000000 0.000000 0.000000 -45.524246 -2.444839 17.048987 -40.454756 -38.976987 -4.141854 0.000000 0.000000 0.000000 -2.665334 -2.036631 0.637364 -6.438580 -21.372984 -43.150471 0.000000 0.000000 0.000000 -76.035565 24.047202 21.266783 -32.687745 48.066100 -5.222110 0.000000 0.000000 0.000000 
